PathFileType	4	(X/Y/Z)	C:/Users/beibeiliu/ov580/test_trc/User2\sequence.34_training_dense_right.trc
DataRate	CameraRate	NumFrames	NumMarkers	Units	OrigDataRate	OrigDataStartFrame	OrigNumFrames
120	120	24	19	mm	120	87	144
Frame#	Time	ThumbCMC			ThumbMCP			ThumbIP			ThumbTip			IndexMCP			IndexPIP			IndexTip			MiddleMCP			MiddlePIP			MiddleTip			RingMCP			RingPIP			RingTip			PinkyMCP			PinkyPIP			PinkyTip			BackHand1			BackHand2			BackHand3	
		X0	Y0	Z0	X1	Y1	Z1	X2	Y2	Z2	X3	Y3	Z3	X4	Y4	Z4	X5	Y5	Z5	X6	Y6	Z6	X7	Y7	Z7	X8	Y8	Z8	X9	Y9	Z9	X10	Y10	Z10	X11	Y11	Z11	X12	Y12	Z12	X13	Y13	Z13	X14	Y14	Z14	X15	Y15	Z15	X16	Y16	Z16	X17	Y17	Z17	X18	Y18	Z18	
86	0.716667	106.92	58.3172	-44.1306	77.1921	68.8285	-52.9205	49.126	78.5719	-75.3635	29.3269	76.9534	-89.9855	89.2612	50.1769	-125.807	61.421	40.4621	-122.126	68.9655	37.1476	-82.5284	90.569	27.3682	-130.331	57.2848	17.5275	-116.974	71.7801	22.7456	-77.9801	83.4998	2.28157	-123.385	60.3617	3.18527	-103.372	79.9899	12.5291	-73.6658	89.7629	-13.7063	-110.237	66.0848	-7.99456	-88.103	84.3147	2.35749	-64.8946	139.814	7.85292	-87.1765	157.009	3.61885	-54.7817	142.4	39.7382	-66.8945	
87	0.725	111.994	58.4801	-42.0822	87.0223	75.8125	-59.4966	62.4279	91.3946	-79.3167	44.3907	92.8826	-99.243	91.125	47.796	-126.396	61.8505	39.8498	-122.549	64.3941	40.728	-85.6923	89.2378	27.7979	-131.627	58.163	21.1077	-118.429	69.7575	19.5875	-80.002	85.199	4.03442	-123.865	61.2447	0.212933	-103.834	78.6098	10.4851	-74.6064	89.8053	-16.3821	-110.851	67.118	-9.40806	-89.1168	86.9919	-0.949894	-63.2578	143.07	5.63735	-86.1017	153.678	3.59756	-55.3377	142.355	37.9795	-63.642	
88	0.733333	114.713	58.789	-41.5747	94.3452	81.1523	-58.9287	75.7474	93.8872	-82.5608	59.1306	97.5355	-104.104	92.7158	47.2265	-126.104	61.2416	36.5816	-120.75	68.4717	40.2057	-84.7216	91.4584	24.0037	-132.646	59.863	17.0591	-120.954	69.3018	20.6422	-79.7349	85.196	6.32686	-124.1	61.9556	2.26187	-103.957	82.4424	7.72315	-72.8784	92.7384	-13.5065	-112.559	66.9868	-11.1262	-88.8714	87.4075	0.14442	-63.0135	140.384	9.06261	-89.0371	154.294	6.67613	-56.9916	142.856	40.5011	-66.005	
89	0.741667	115.199	58.8198	-47.1527	98.8017	79.1085	-61.4521	82.5994	97.017	-88.094	68.0965	100.088	-105.977	91.8108	48.6854	-126.102	61.5293	40.9419	-123.082	70.5932	34.7908	-84.9289	93.3554	24.7696	-131.219	59.0323	17.6594	-118.991	70.8905	20.7561	-80.138	86.5288	5.05696	-125.12	63.881	-1.71247	-107.413	79.1179	9.32533	-75.6957	92.6853	-17.0455	-113.252	68.0732	-11.6028	-93.6513	81.5747	-2.69458	-65.0731	143.438	5.79046	-86.6937	155.004	3.13012	-56.9315	142.6	42.5025	-68.3072	
90	0.75	116.181	58.7395	-44.7891	103.124	80.3822	-66.099	89.5184	96.0962	-94.8615	75.2806	101.753	-114.618	91.102	50.5492	-128.227	63.9539	36.6115	-123.394	69.8534	36.2237	-87.7685	95.6738	24.1335	-131.445	60.5524	17.2963	-120.084	69.2993	16.9308	-81.7998	90.6453	1.13267	-125.262	63.6763	-0.664963	-104.733	82.2997	6.64442	-74.7734	95.0151	-16.2228	-113.341	68.1861	-15.4775	-92.2926	81.7754	-3.88975	-67.7688	142.482	7.93289	-89.4149	155.32	5.92461	-51.788	143.435	42.3481	-67.6575	
91	0.758333	118.201	54.5573	-47.229	106.991	79.222	-69.4613	92.6356	89.681	-94.2112	80.924	95.4373	-119.12	93.7062	45.755	-128.526	62.4628	37.6576	-120.53	72.9854	36.9299	-87.3285	94.2036	23.4828	-132.134	59.8817	15.9285	-116.972	72.9108	18.5602	-80.4754	88.731	2.32819	-126.128	63.0904	-3.00723	-104.507	80.0002	7.35816	-76.6622	94.4951	-19.8303	-114.042	68.1171	-13.3245	-91.5636	82.3632	-4.26177	-67.4374	143.738	4.91698	-90.43	156.118	1.59462	-54.2805	143.966	38.9053	-65.3326	
92	0.766667	118.329	56.1553	-49.7026	106.51	73.1492	-70.6078	92.8698	86.5786	-99.8432	82.116	80.4825	-123.851	93.4786	47.7183	-128.309	62.0391	38.2596	-120.647	73.8644	36.286	-86.949	94.4014	23.3517	-132.725	60.5471	18.5468	-117.611	73.715	15.8124	-81.4205	88.5447	3.05528	-125.293	63.2034	-2.0022	-109.016	84.1238	5.77036	-74.2978	89.7751	-18.3997	-114.66	67.6418	-12.2286	-94.7295	84.5635	-1.8313	-66.0367	143.934	2.60276	-89.0977	156.196	-1.28573	-53.3606	143.1	36.5236	-66.1273	
93	0.775	117.546	55.2344	-49.8876	101.932	74.7725	-71.3522	88.8593	78.9041	-106.527	76.048	74.7159	-128.725	94.0573	46.5435	-128.408	61.9601	40.0489	-122.848	73.7409	35.4182	-86.35	95.3241	25.2622	-132.091	59.9803	14.4659	-116.273	74.8196	20.3863	-80.2346	87.1847	1.65745	-125.194	63.6051	-0.868901	-108.24	78.7084	9.04779	-77.5363	90.7143	-17.3596	-113.234	66.7095	-13.0671	-91.5531	86.1645	-2.22735	-65.9509	143.267	0.436972	-91.1772	154.19	2.38324	-51.9503	144.972	37.5828	-70.3993	
94	0.783333	112.689	53.4107	-46.2288	93.2659	71.9376	-68.3244	76.8336	75.2365	-104.259	66.1966	62.72	-127.527	91.0135	43.2783	-127.722	59.9493	35.4861	-119.834	67.3634	38.9836	-85.5807	91.6028	23.7374	-132.252	58.4577	15.4223	-115.456	74.0095	19.8878	-78.6183	85.6562	0.155229	-125.599	62.5298	-3.18886	-106.176	79.2081	4.94286	-74.7695	92.6493	-14.7555	-112.39	67.0896	-10.4685	-91.4208	87.9202	-0.797586	-64.3984	140.874	1.76852	-90.016	152.573	0.983927	-58.1367	143.91	39.6661	-65.752	
95	0.791667	108.59	56.9216	-47.5155	85.9449	71.9915	-67.7436	66.8891	71.8452	-103.015	58.3237	58.5645	-121.352	89.8396	48.1454	-126.079	58.1401	35.9502	-119.788	64.4544	37.6877	-85.2913	91.8917	22.0745	-130.564	56.5292	16.0259	-116.762	70.436	17.0301	-78.5975	86.3013	3.25396	-124.35	61.1094	-0.886985	-105.581	78.9418	6.76249	-74.1782	89.7457	-14.0068	-113.149	66.6631	-11.4424	-88.0738	86.0923	-2.67527	-65.9071	141.485	6.76116	-89.7479	153.476	3.52764	-57.5521	140.953	38.1265	-70.0033	
96	0.8	106.004	58.2834	-47.1114	82.5564	65.9422	-69.1723	61.907	68.0964	-96.0521	50.8726	56.2807	-119.483	85.999	50.7009	-125.531	55.3693	40.7415	-120.588	62.3038	32.1611	-85.076	84.254	26.5461	-131.288	55.0613	13.6542	-115.292	65.5025	18.0466	-78.4106	85.28	1.50949	-122.812	59.6074	-0.648041	-100.329	79.2542	11.6475	-72.9304	89.612	-17.9327	-112.993	66.3609	-8.15004	-88.2789	82.6712	-2.5161	-63.9446	139.308	8.78136	-87.6733	151.613	7.60218	-57.5843	140.023	40.7721	-64.9728	
97	0.808333	102.421	58.1197	-46.0945	79.1933	64.7197	-66.1592	54.9328	68.8449	-93.1384	46.46	52.3844	-116.669	85.0966	49.2377	-124.746	54.8452	38.7843	-118.275	62.3127	33.0962	-83.6744	82.5454	28.2945	-131.196	52.6572	18.4975	-115.73	65.3419	18.9491	-76.2088	79.5797	2.93497	-122.824	58.3644	-2.75049	-103.011	77.0327	6.12763	-72.0754	87.6589	-13.1166	-112.025	64.69	-12.393	-85.1791	85.4969	-2.87906	-61.4147	137.289	7.53751	-90.4081	151.707	7.39096	-58.6421	137.215	42.6836	-66.6925	
98	0.816667	101.324	56.7722	-41.9615	73.5723	64.3924	-61.1077	52.6201	62.5392	-89.89	40.7202	49.863	-115.556	84.0711	49.3036	-123.581	54.6605	37.1569	-118.217	61.5282	36.2965	-80.9561	82.987	26.4219	-130.477	50.6432	16.5679	-113.034	60.8183	19.0764	-77.5455	82.2241	3.33057	-121.764	57.0382	-1.08612	-103.478	73.2232	6.85456	-72.5408	87.8142	-17.4404	-111.57	63.3114	-7.59647	-86.0598	83.5978	-1.10879	-63.6513	136.184	10.2391	-87.143	151.149	5.26718	-54.989	134.786	44.0915	-67.2855	
99	0.825	100.213	55.7925	-42.6555	70.9548	58.7572	-60.2985	46.8307	58.1069	-89.502	35.0056	45.4333	-112.833	82.8822	52.5184	-121.303	53.5113	41.7621	-118.429	62.7231	36.3041	-81.2273	81.6389	30.2188	-128.838	51.4564	18.0025	-114.84	60.8918	20.0202	-76.0107	79.0607	4.46493	-120.579	56.0922	-2.28397	-99.79	74.019	4.7041	-70.2511	83.7698	-16.5956	-111.054	62.387	-13.4882	-84.1459	81.8574	-0.412686	-60.7387	134.312	8.23214	-88.9872	151.45	3.18619	-55.9142	134.324	41.8799	-64.4529	
100	0.833333	99.399	51.5407	-41.1929	66.4459	55.6715	-58.0137	41.043	52.1546	-81.9139	32.3508	37.6237	-106.44	83.9468	48.5827	-121.006	52.1127	39.5993	-116.227	59.6917	34.6722	-83.0266	82.6423	27.4293	-126.45	50.8513	16.0197	-112.456	61.4027	17.8897	-75.7994	80.7288	3.74544	-120.001	54.3247	0.132401	-99.8259	75.7986	7.39876	-68.145	86.0916	-14.7368	-109.076	61.5611	-10.422	-86.9568	81.2421	-3.59767	-60.114	134.097	9.94313	-85.629	150.615	2.27696	-56.0142	136.47	40.7881	-64.2823	
101	0.841667	96.6879	52.9626	-42.7592	65.8266	49.5012	-58.6724	36.5871	49.3273	-82.1566	22.7577	38.5942	-98.796	82.0449	52.3758	-121.514	52.6975	41.72	-117.511	60.6837	36.1809	-80.4738	81.3941	27.827	-127.261	51.3143	19.2003	-114.116	63.6504	20.1045	-73.3306	79.0606	7.32409	-119.778	54.92	0.790002	-100.147	73.3916	8.51675	-69.0256	87.294	-12.61	-107.813	61.8886	-10.4775	-85.2873	79.4983	-2.0039	-59.3856	135.428	7.33017	-82.7923	149.308	4.73291	-52.464	136.328	39.059	-64.0122	
102	0.85	98.4823	50.025	-41.1093	63.8437	50.8992	-53.6908	33.3673	49.3974	-76.3193	19.4634	38.1656	-90.7348	85.6879	50.8454	-119.718	54.7865	40.231	-119.231	59.6419	36.2407	-82.0719	84.2442	28.1929	-126.259	50.9845	17.3054	-112.252	67.4876	18.5243	-72.729	82.009	4.80981	-119.089	54.9141	1.35279	-102.211	71.844	8.34099	-69.8979	84.0578	-12.9827	-109.031	61.0444	-11.4892	-86.8004	77.4126	-3.69347	-60.5752	134.611	9.9256	-87.0476	151.908	3.50363	-52.1904	136.981	38.5924	-63.002	
103	0.858333	97.9722	53.5066	-37.617	64.956	51.4626	-50.8224	35.4674	51.6502	-69.4807	14.1694	46.1515	-88.465	84.1884	47.9854	-121.169	53.0906	41.211	-116.147	59.5652	40.6589	-80.6157	84.4006	25.9441	-125.619	51.1283	20.0386	-111.835	63.9202	21.967	-75.3342	79.4168	6.06733	-120.192	55.5018	-0.0161238	-103.383	71.5851	6.62893	-71.0121	83.6709	-15.499	-109.26	59.9863	-10.9496	-88.8966	74.9161	-1.51885	-60.6426	135.777	7.6395	-86.0853	151.768	5.79224	-52.7245	136.388	43.325	-61.1778	
104	0.866667	101.157	51.5264	-37.4643	65.9056	60.5407	-49.2602	38.0211	62.0637	-67.6818	17.7916	58.8718	-81.3794	85.0874	53.6187	-119.552	52.0312	42.9493	-116.347	60.9663	37.8753	-81.9059	81.7112	31.4509	-126.961	51.5106	18.3276	-113.149	65.4924	19.3682	-75.3923	80.1756	4.72841	-120.276	53.7478	3.20661	-101.691	73.2922	5.59123	-70.4911	86.4879	-14.6487	-108.881	59.7466	-11.8095	-87.2906	78.2282	2.12549	-59.515	137.209	8.61877	-82.5806	151.157	4.10309	-51.0241	135.972	38.5822	-60.648	
105	0.875	104.922	57.0234	-39.3539	74.3376	70.4432	-50.0245	46.1948	81.1872	-69.4246	27.4185	79.2173	-87.3413	84.1821	51.9162	-121.709	54.1801	43.3986	-117.683	59.5313	39.9047	-83.4618	83.046	29.1963	-126.553	52.5246	19.5365	-115.402	66.0259	21.9286	-75.7593	77.727	7.19218	-120.547	53.9393	5.06186	-101.218	69.8402	9.75198	-71.5388	85.1268	-13.8715	-108.363	59.8121	-7.25207	-84.9813	77.7349	1.60681	-61.0929	134.98	8.57838	-84.9193	150.661	6.95352	-52.0745	134.719	42.3538	-63.1128	
106	0.883333	108.582	61.9478	-38.7418	84.8081	77.8466	-52.3583	61.0116	91.1786	-75.9653	43.3189	91.7743	-91.6377	85.5314	47.9481	-122.229	57.0124	39.976	-119.948	62.4048	38.4426	-82.0351	83.3762	25.772	-127.629	52.1002	17.9208	-112.738	69.6013	22.6735	-73.8625	79.4952	6.57818	-121.181	55.2417	3.4353	-103.657	70.3752	11.1809	-72.8018	87.1708	-16.0629	-107.972	60.5628	-10.9554	-83.7696	77.6067	-3.00347	-60.6692	137.74	4.52508	-86.8854	152.143	2.0904	-52.612	136.992	41.1495	-65.6632	
107	0.891667	112.02	60.1601	-39.5742	93.5941	75.5993	-59.2024	75.0957	92.9978	-84.9902	58.9805	99.1658	-103.37	87.4078	49.9647	-123.458	54.4498	43.0066	-117.421	65.8025	40.7215	-80.7917	83.37	27.7934	-129.537	53.1648	20.3947	-113.934	67.7177	17.9292	-77.1379	81.2861	6.11521	-120.942	55.3119	-0.23552	-101.05	71.8062	9.82141	-72.8498	84.4374	-16.0428	-109.465	60.2769	-11.1032	-89.1561	78.842	0.685368	-61.9019	137.155	3.19206	-86.3243	151.094	4.45474	-55.5304	138.602	39.5784	-64.1258	
108	0.9	114.42	56.0751	-41.0612	100.006	78.7667	-63.7801	84.0006	95.9764	-89.1382	70.8756	95.596	-112.062	89.5425	48.4873	-123.193	55.9381	40.1922	-116.079	67.6115	41.4758	-81.2269	89.0935	28.7797	-126.965	54.5964	16.4033	-115.88	67.7769	20.4413	-77.5133	79.6427	4.69957	-122.086	55.5987	-0.764421	-102.714	74.106	6.11384	-70.2927	82.6731	-15.0144	-110.268	61.3364	-9.74215	-89.9554	79.164	-2.32402	-60.6549	137.173	1.39804	-85.0345	151.364	4.98573	-54.6947	140.953	38.7357	-65.201	
109	0.908333	115.218	58.8402	-41.6106	102.83	76.6647	-62.9033	87.4752	90.7538	-95.8728	75.5373	86.3174	-118.737	90.3635	51.1159	-122.172	58.1506	42.616	-119.019	68.8031	40.5334	-80.653	85.3899	25.153	-129.288	54.5875	21.7643	-114.624	68.6648	18.1384	-77.0589	81.7028	2.15611	-121.85	56.4029	-0.949211	-105.622	71.9754	6.32473	-72.0411	85.3583	-12.4247	-111.172	61.229	-9.69453	-87.2641	80.9157	-1.01239	-63.3036	137.087	3.5334	-84.9439	152.081	1.46228	-54.4602	138.888	36.9261	-62.9466	
